<svg xmlns="http://www.w3.org/2000/svg" viewBox="0 0 460 460">
  <defs>
    <radialGradient id="fg-blue" cx="32%" cy="26%" r="80%">
      <stop offset="0%" stop-color="#8FE0FF"/>
      <stop offset="55%" stop-color="#29ABE2"/>
      <stop offset="100%" stop-color="#1566A8"/>
    </radialGradient>
    <radialGradient id="fg-red" cx="32%" cy="26%" r="80%">
      <stop offset="0%" stop-color="#FFA3A3"/>
      <stop offset="55%" stop-color="#E94B4B"/>
      <stop offset="100%" stop-color="#A82424"/>
    </radialGradient>
    <radialGradient id="fg-green" cx="32%" cy="26%" r="80%">
      <stop offset="0%" stop-color="#9CF5BE"/>
      <stop offset="55%" stop-color="#39C96B"/>
      <stop offset="100%" stop-color="#1C8A47"/>
    </radialGradient>
    <radialGradient id="fg-yellow" cx="32%" cy="26%" r="80%">
      <stop offset="0%" stop-color="#FFF9C4"/>
      <stop offset="55%" stop-color="#F5E642"/>
      <stop offset="100%" stop-color="#C9B815"/>
    </radialGradient>
  </defs>
  <path fill="url(#fg-blue)" transform="translate(230,230) rotate(-45)" d="M0,-10 C-25,-51 -80,-86 -80,-170 A80,80 0 0,1 80,-170 C80,-86 25,-51 0,-10 Z"/>
  <path fill="url(#fg-red)" transform="translate(230,230) rotate(45)" d="M0,-10 C-25,-51 -80,-86 -80,-170 A80,80 0 0,1 80,-170 C80,-86 25,-51 0,-10 Z"/>
  <path fill="url(#fg-yellow)" transform="translate(230,230) rotate(-135)" d="M0,-10 C-25,-51 -80,-86 -80,-170 A80,80 0 0,1 80,-170 C80,-86 25,-51 0,-10 Z"/>
  <path fill="url(#fg-green)" transform="translate(230,230) rotate(135)" d="M0,-10 C-25,-51 -80,-86 -80,-170 A80,80 0 0,1 80,-170 C80,-86 25,-51 0,-10 Z"/>
</svg>
